<svg width="24" height="24" viewBox="0 0 24 24" fill="none" xmlns="http://www.w3.org/2000/svg">
<path fill-rule="evenodd" clip-rule="evenodd" d="M2.5 5.86333C2.5 3.17739 4.54952 1 7.07772 1H16.9223C19.4505 1 21.5 3.17739 21.5 5.86333V20.2231C21.5 22.573 18.9203 23.8566 17.2211 22.3523L12.8508 18.4832C12.358 18.0469 11.642 18.0469 11.1492 18.4832L6.77893 22.3523C5.07974 23.8566 2.5 22.573 2.5 20.2231V5.86333ZM7.07772 2.35964C5.25633 2.35964 3.77979 3.92829 3.77979 5.86333V20.2231C3.77979 21.4202 5.094 22.0742 5.95962 21.3078L10.3299 17.4387C11.2973 16.5822 12.7027 16.5822 13.6701 17.4387L18.0404 21.3078C18.906 22.0742 20.2202 21.4202 20.2202 20.2231V5.86333C20.2202 3.92829 18.7437 2.35964 16.9223 2.35964H7.07772Z" fill="#2B2F3F"/>
</svg>
