<svg width="24" height="24" viewBox="0 0 24 24" fill="none" xmlns="http://www.w3.org/2000/svg">
<path fill-rule="evenodd" clip-rule="evenodd" d="M6.99998 2.64998C4.59754 2.64998 2.64998 4.59754 2.64998 6.99998V17C2.64998 19.4024 4.59754 21.35 6.99998 21.35H17C19.4024 21.35 21.35 19.4024 21.35 17V12C21.35 11.641 21.641 11.35 22 11.35C22.359 11.35 22.65 11.641 22.65 12V17C22.65 20.1204 20.1204 22.65 17 22.65H6.99998C3.87957 22.65 1.34998 20.1204 1.34998 17V6.99998C1.34998 3.87957 3.87957 1.34998 6.99998 1.34998H17C17.359 1.34998 17.65 1.64099 17.65 1.99998C17.65 2.35896 17.359 2.64998 17 2.64998H6.99998Z" fill="#2B2F3F"/>
<path fill-rule="evenodd" clip-rule="evenodd" d="M5.40002 8.00002C5.40002 7.66865 5.66865 7.40002 6.00002 7.40002H13C13.3314 7.40002 13.6 7.66865 13.6 8.00002C13.6 8.3314 13.3314 8.60002 13 8.60002H6.00002C5.66865 8.60002 5.40002 8.3314 5.40002 8.00002Z" fill="#2B2F3F"/>
<path fill-rule="evenodd" clip-rule="evenodd" d="M5.40002 11C5.40002 10.6687 5.66865 10.4 6.00002 10.4H10.7C11.0314 10.4 11.3 10.6687 11.3 11C11.3 11.3314 11.0314 11.6 10.7 11.6H6.00002C5.66865 11.6 5.40002 11.3314 5.40002 11Z" fill="#2B2F3F"/>
<path fill-rule="evenodd" clip-rule="evenodd" d="M5.40002 17C5.40002 16.6687 5.66865 16.4 6.00002 16.4H17C17.3314 16.4 17.6 16.6687 17.6 17C17.6 17.3314 17.3314 17.6 17 17.6H6.00002C5.66865 17.6 5.40002 17.3314 5.40002 17Z" fill="#2B2F3F"/>
<path fill-rule="evenodd" clip-rule="evenodd" d="M5.40002 14C5.40002 13.6687 5.66865 13.4 6.00002 13.4H9.00002C9.3314 13.4 9.60002 13.6687 9.60002 14C9.60002 14.3314 9.3314 14.6 9.00002 14.6H6.00002C5.66865 14.6 5.40002 14.3314 5.40002 14Z" fill="#2B2F3F"/>
<path fill-rule="evenodd" clip-rule="evenodd" d="M18.1096 5.14113C19.1246 4.10881 20.7843 4.09475 21.8166 5.10973C22.8489 6.12472 22.863 7.78439 21.848 8.81671L16.589 14.1656C16.3984 14.3594 16.1587 14.4979 15.8955 14.566L12.9789 15.3215C12.2481 15.5107 11.5791 14.853 11.756 14.1191L12.462 11.1902C12.5257 10.9259 12.66 10.6839 12.8506 10.49L18.1096 5.14113ZM21.1155 5.8228C20.477 5.19502 19.4505 5.20372 18.8227 5.84222L18.3267 6.3467L20.6745 8.58396L21.1349 8.11561C21.7627 7.47711 21.754 6.45058 21.1155 5.8228ZM19.9733 9.29712L17.6255 7.05985L13.5637 11.1911C13.5001 11.2557 13.4554 11.3364 13.4341 11.4245L12.7282 14.3534L15.6447 13.598C15.7325 13.5752 15.8124 13.5291 15.8759 13.4645L19.9733 9.29712Z" fill="#2B2F3F"/>
</svg>
