<svg width="24" height="24" viewBox="0 0 24 24" fill="none" xmlns="http://www.w3.org/2000/svg">
<path fill-rule="evenodd" clip-rule="evenodd" d="M7.40002 6.99996C7.40002 6.66859 7.66865 6.39996 8.00002 6.39996H16C16.3314 6.39996 16.6 6.66859 16.6 6.99996V8.99996C16.6 9.33133 16.3314 9.59996 16 9.59996C15.6687 9.59996 15.4 9.33133 15.4 8.99996V7.59996H12.6V16.4H15C15.3314 16.4 15.6 16.6686 15.6 17C15.6 17.3313 15.3314 17.6 15 17.6H9.00002C8.66865 17.6 8.40002 17.3313 8.40002 17C8.40002 16.6686 8.66865 16.4 9.00002 16.4H11.4V7.59996H8.60002V8.99996C8.60002 9.33133 8.3314 9.59996 8.00002 9.59996C7.66865 9.59996 7.40002 9.33133 7.40002 8.99996V6.99996Z" fill="#2B2F3F"/>
<path fill-rule="evenodd" clip-rule="evenodd" d="M1.34998 6.99998C1.34998 3.87957 3.87957 1.34998 6.99998 1.34998H17C20.1204 1.34998 22.65 3.87957 22.65 6.99998V17C22.65 20.1204 20.1204 22.65 17 22.65H6.99998C3.87957 22.65 1.34998 20.1204 1.34998 17V6.99998ZM6.99998 2.64998C4.59754 2.64998 2.64998 4.59754 2.64998 6.99998V17C2.64998 19.4024 4.59754 21.35 6.99998 21.35H17C19.4024 21.35 21.35 19.4024 21.35 17V6.99998C21.35 4.59754 19.4024 2.64998 17 2.64998H6.99998Z" fill="#2B2F3F"/>
</svg>
