<svg width="24" height="24" viewBox="0 0 24 24" fill="none" xmlns="http://www.w3.org/2000/svg">
<path fill-rule="evenodd" clip-rule="evenodd" d="M14.5378 9.16939C14.8812 9.40102 14.9718 9.86717 14.7402 10.2106L12.5034 13.5267C12.2718 13.8701 11.8056 13.9607 11.4622 13.7291C11.1188 13.4975 11.0282 13.0313 11.2598 12.6879L13.4966 9.37178C13.7282 9.02838 14.1944 8.93777 14.5378 9.16939Z" fill="#2B2F3F"/>
<path fill-rule="evenodd" clip-rule="evenodd" d="M9.25 2C9.25 1.58579 9.58579 1.25 10 1.25H14C14.4142 1.25 14.75 1.58579 14.75 2C14.75 2.41421 14.4142 2.75 14 2.75H10C9.58579 2.75 9.25 2.41421 9.25 2ZM12 4.75C7.44365 4.75 3.75 8.44365 3.75 13C3.75 17.5564 7.44365 21.25 12 21.25C16.5563 21.25 20.25 17.5564 20.25 13C20.25 8.44365 16.5563 4.75 12 4.75ZM2.25 13C2.25 7.61522 6.61522 3.25 12 3.25C17.3848 3.25 21.75 7.61522 21.75 13C21.75 18.3848 17.3848 22.75 12 22.75C6.61522 22.75 2.25 18.3848 2.25 13Z" fill="#2B2F3F"/>
</svg>
