<svg width="24" height="24" viewBox="0 0 24 24" fill="none" xmlns="http://www.w3.org/2000/svg">
<path fill-rule="evenodd" clip-rule="evenodd" d="M21 0.400024C21.3314 0.400024 21.6 0.668654 21.6 1.00002V5.00002C21.6 5.3314 21.3314 5.60002 21 5.60002C20.6687 5.60002 20.4 5.3314 20.4 5.00002V1.00002C20.4 0.668654 20.6687 0.400024 21 0.400024Z" fill="#2B2F3F"/>
<path fill-rule="evenodd" clip-rule="evenodd" d="M18.4 3.00004C18.4 2.66867 18.6687 2.40004 19 2.40004H23C23.3314 2.40004 23.6 2.66867 23.6 3.00004C23.6 3.33141 23.3314 3.60004 23 3.60004L19 3.60004C18.6687 3.60004 18.4 3.33141 18.4 3.00004Z" fill="#2B2F3F"/>
<path fill-rule="evenodd" clip-rule="evenodd" d="M12.5 9.00002C12.5 8.66865 12.7686 8.40002 13.1 8.40002H18.1C18.4314 8.40002 18.7 8.66865 18.7 9.00002C18.7 9.3314 18.4314 9.60002 18.1 9.60002H13.1C12.7686 9.60002 12.5 9.3314 12.5 9.00002Z" fill="#2B2F3F"/>
<path fill-rule="evenodd" clip-rule="evenodd" d="M12.5 16C12.5 15.6687 12.7686 15.4 13.1 15.4H18.1C18.4314 15.4 18.7 15.6687 18.7 16C18.7 16.3314 18.4314 16.6 18.1 16.6H13.1C12.7686 16.6 12.5 16.3314 12.5 16Z" fill="#2B2F3F"/>
<path fill-rule="evenodd" clip-rule="evenodd" d="M11.0243 6.57576C11.2586 6.81007 11.2586 7.18997 11.0243 7.42429L8.16569 10.2829C7.85327 10.5953 7.34673 10.5953 7.03431 10.2829L6.17574 9.42429C5.94142 9.18997 5.94142 8.81007 6.17574 8.57576C6.41005 8.34145 6.78995 8.34145 7.02426 8.57576L7.6 9.1515L10.1757 6.57576C10.4101 6.34145 10.7899 6.34145 11.0243 6.57576Z" fill="#2B2F3F"/>
<path fill-rule="evenodd" clip-rule="evenodd" d="M11.0243 13.5758C11.2586 13.8101 11.2586 14.19 11.0243 14.4243L8.16569 17.2829C7.85327 17.5953 7.34673 17.5953 7.03431 17.2829L6.17574 16.4243C5.94142 16.19 5.94142 15.8101 6.17574 15.5758C6.41005 15.3414 6.78995 15.3414 7.02426 15.5758L7.6 16.1515L10.1757 13.5758C10.4101 13.3414 10.7899 13.3414 11.0243 13.5758Z" fill="#2B2F3F"/>
<path d="M22 7V17C22 19.7614 19.7614 22 17 22H7C4.23858 22 2 19.7614 2 17V7C2 4.23858 4.23858 2 7 2H17" stroke="#2B2F3F" stroke-width="1.3" stroke-linecap="round"/>
</svg>
